<svg width="256" height="256" viewBox="0 0 24 24" xmlns="http://www.w3.org/2000/svg"><rect x="0" y="0" width="24" height="24" rx="8" fill="none"/><svg xmlns="http://www.w3.org/2000/svg" viewBox="0 0 24 24" fill="#000000" x="0" y="0" width="24" height="24"><path fill="#000000" d="M4.425 10q.35-.9.113-1.6T3.724 7Q2.9 6 2.637 5.112T2.55 3H4.5q-.2.95-.063 1.55t.713 1.3Q6.1 7 6.363 7.888T6.375 10h-1.95Zm4 0q.35-.9.125-1.6T7.75 7q-.825-1-1.1-1.888T6.55 3H8.5q-.2.95-.063 1.55t.713 1.3Q10.1 7 10.363 7.888T10.375 10h-1.95Zm4 0q.35-.9.125-1.6t-.8-1.4q-.825-1-1.1-1.888T10.55 3h1.95q-.2.95-.063 1.55t.713 1.3Q14.1 7 14.363 7.888T14.375 10h-1.95ZM5 20q-1.25 0-2.125-.875T2 17v-5h14.025q.125-.85.675-1.488t1.35-.912l4.625-1.55l.625 1.9l-4.625 1.55q-.3.1-.488.363T18 12.45V17q0 1.25-.875 2.125T15 20H5Zm0-2h10q.425 0 .713-.288T16 17v-3H4v3q0 .425.288.713T5 18Zm5-2Z"/></svg></svg>